<?xml version="1.0" encoding="utf-8"?>
<svg xmlns="http://www.w3.org/2000/svg" viewBox="0 0 816 1056" width="816" height="1056"
     font-family="-apple-system, Segoe UI, Roboto, Helvetica, Arial, sans-serif">
  <rect width="816" height="1056" fill="#0e1116"/>
  <!-- header band -->
  <rect x="0" y="0" width="816" height="220" fill="#f0b429"/>
  <text x="408" y="115" text-anchor="middle" font-size="64" font-weight="800" fill="#0e1116">HAND TOURNAMENT</text>
  <text x="408" y="170" text-anchor="middle" font-size="22" font-weight="600" letter-spacing="4" fill="#0e1116">16 TEAMS · BEST OF 3 ROUND 1 · KNOCKOUT AFTER</text>

  <!-- QR card -->
  <g transform="translate(168 280)">
    <rect width="480" height="480" rx="20" fill="#ffffff"/>
    <g transform="translate(30 30) scale(0.778)">
      <g transform="scale(12)"><path fill="#fff" d="M0 0h45v45h-45z"/><path class="qrline" stroke="#0e1116" d="M4 4.5h7m1 0h3m1 0h2m1 0h1m1 0h2m1 0h1m2 0h1m1 0h4m1 0h7m-37 1h1m5 0h1m1 0h3m1 0h2m4 0h3m3 0h4m2 0h1m5 0h1m-37 1h1m1 0h3m1 0h1m4 0h2m1 0h4m2 0h2m4 0h1m3 0h1m1 0h3m1 0h1m-37 1h1m1 0h3m1 0h1m1 0h1m2 0h1m4 0h1m1 0h3m2 0h1m2 0h1m3 0h1m1 0h3m1 0h1m-37 1h1m1 0h3m1 0h1m1 0h1m1 0h1m2 0h2m1 0h1m1 0h3m2 0h3m1 0h1m2 0h1m1 0h3m1 0h1m-37 1h1m5 0h1m1 0h1m2 0h1m4 0h2m3 0h1m3 0h4m1 0h1m5 0h1m-37 1h7m1 0h1m1 0h1m1 0h1m1 0h1m1 0h1m1 0h1m1 0h1m1 0h1m1 0h1m1 0h1m1 0h1m1 0h7m-26 1h1m2 0h2m2 0h1m1 0h1m3 0h1m1 0h1m-24 1h1m2 0h1m3 0h1m2 0h6m4 0h2m2 0h2m2 0h3m1 0h2m-35 1h1m1 0h1m3 0h1m1 0h1m2 0h2m6 0h1m2 0h1m1 0h4m1 0h1m2 0h3m-37 1h4m2 0h2m4 0h2m1 0h1m2 0h1m1 0h3m1 0h1m2 0h1m2 0h4m1 0h2m-37 1h3m1 0h1m6 0h2m2 0h1m1 0h1m4 0h2m1 0h1m2 0h1m2 0h2m-32 1h1m3 0h3m2 0h1m1 0h1m2 0h5m1 0h3m1 0h1m1 0h4m4 0h2m-37 1h5m2 0h2m2 0h3m2 0h3m1 0h2m2 0h2m2 0h1m1 0h1m2 0h1m1 0h2m-37 1h1m1 0h1m3 0h1m1 0h1m3 0h3m1 0h1m4 0h2m2 0h2m2 0h2m1 0h1m1 0h1m1 0h1m-37 1h2m6 0h1m1 0h1m2 0h1m2 0h2m1 0h1m1 0h5m2 0h1m1 0h2m-31 1h2m3 0h1m1 0h1m1 0h2m1 0h3m2 0h2m1 0h2m1 0h1m2 0h1m1 0h2m2 0h4m-35 1h1m5 0h3m1 0h1m1 0h1m4 0h4m1 0h3m1 0h1m1 0h1m1 0h1m3 0h1m-37 1h1m1 0h2m1 0h2m2 0h2m1 0h1m1 0h3m1 0h2m3 0h1m1 0h1m3 0h1m1 0h3m1 0h2m-36 1h5m2 0h1m2 0h1m1 0h2m2 0h2m1 0h1m1 0h1m1 0h1m1 0h5m3 0h2m-34 1h1m1 0h5m1 0h8m1 0h1m1 0h3m1 0h4m1 0h3m3 0h1m-37 1h1m2 0h1m1 0h1m1 0h1m1 0h4m4 0h5m1 0h1m5 0h2m2 0h4m-37 1h1m2 0h1m1 0h10m2 0h1m1 0h1m1 0h1m1 0h2m4 0h1m1 0h2m2 0h2m-37 1h1m1 0h1m4 0h2m10 0h1m1 0h3m2 0h1m3 0h1m1 0h1m2 0h1m-36 1h2m2 0h1m1 0h1m4 0h1m5 0h1m2 0h2m2 0h1m2 0h1m1 0h1m2 0h2m-33 1h3m3 0h1m3 0h2m1 0h2m2 0h2m1 0h1m1 0h3m1 0h3m6 0h1m-37 1h1m1 0h1m1 0h4m1 0h2m1 0h3m2 0h1m2 0h1m3 0h1m1 0h1m2 0h5m2 0h1m-36 1h1m3 0h1m1 0h2m3 0h2m4 0h1m1 0h2m2 0h4m2 0h1m1 0h2m-34 1h3m2 0h2m1 0h1m2 0h3m2 0h4m1 0h4m3 0h5m1 0h1m-27 1h1m2 0h1m2 0h2m1 0h4m2 0h6m3 0h1m3 0h1m-37 1h7m3 0h1m4 0h2m1 0h2m1 0h1m3 0h1m1 0h2m1 0h1m1 0h1m1 0h3m-37 1h1m5 0h1m6 0h6m2 0h2m3 0h1m1 0h1m3 0h1m1 0h1m1 0h1m-37 1h1m1 0h3m1 0h1m3 0h2m2 0h2m2 0h1m1 0h1m1 0h2m1 0h2m1 0h6m-34 1h1m1 0h3m1 0h1m1 0h1m3 0h4m1 0h1m1 0h5m1 0h1m3 0h1m1 0h6m-37 1h1m1 0h3m1 0h1m6 0h2m2 0h1m1 0h1m5 0h2m1 0h2m2 0h1m3 0h1m-37 1h1m5 0h1m2 0h9m2 0h2m3 0h1m1 0h2m1 0h1m1 0h1m-33 1h7m3 0h1m1 0h1m1 0h2m5 0h1m3 0h1m1 0h2m1 0h3m2 0h2"/></g>
  <g transform="scale(12)" font-family="-apple-system, Segoe UI, Roboto, Helvetica, Arial, sans-serif">
    <rect x="18.4" y="18.4"
          width="8.2" height="8.2"
          rx="1.2" ry="1.2" fill="#ffffff"/>
    <rect x="19.0" y="19.0"
          width="7.0" height="7.0"
          rx="1" ry="1" fill="#f0b429"/>
    <text x="22.5" y="22.55" text-anchor="middle"
          dominant-baseline="central" font-weight="800"
          font-size="5.2" fill="#0e1116">H</text>
  </g>

    </g>
  </g>

  <!-- footer -->
  <text x="408" y="830" text-anchor="middle" font-size="44" font-weight="700" fill="#f0b429">SCAN TO REGISTER YOUR TEAM</text>
  <text x="408" y="880" text-anchor="middle" font-size="20" fill="#ffffff" opacity="0.7">or open this link</text>
  <text x="408" y="920" text-anchor="middle" font-size="24" font-weight="600" fill="#ffffff">moeghashim.github.io/wasimo</text>

  <text x="408" y="1010" text-anchor="middle" font-size="14" letter-spacing="3" fill="#f0b429" opacity="0.7">FIRST 16 TEAMS TO CONFIRM ARE IN</text>
</svg>
